<svg width="18" height="18" viewBox="0 0 18 18" fill="none" xmlns="http://www.w3.org/2000/svg">
<path d="M13.996 11.1226L12.1579 10.9127C11.7164 10.862 11.2822 11.014 10.9711 11.3252L9.63948 12.6568C7.59147 11.6147 5.91254 9.94296 4.87044 7.8877L6.20925 6.54888C6.52043 6.2377 6.6724 5.80349 6.62174 5.36205L6.41188 3.53836C6.32504 2.80745 5.70991 2.25745 4.97176 2.25745H3.71979C2.90203 2.25745 2.22178 2.93771 2.27243 3.75547C2.65598 9.93572 7.59871 14.8712 13.7717 15.2548C14.5894 15.3054 15.2697 14.6252 15.2697 13.8074V12.5555C15.2769 11.8245 14.7269 11.2094 13.996 11.1226Z" fill="#212121"/>
</svg>
