<svg aria-hidden="true" style="position:absolute;width:0;height:0;overflow:hidden" xmlns="http://www.w3.org/2000/svg" xmlns:xlink="http://www.w3.org/1999/xlink"><defs><symbol id="icon-antenna" viewBox="0 0 32 32"><path fill="#212121" style="fill:var(--color1,#212121)" d="M30.773 22.098l-8.443-8.505.937-4.615c.242.094.499.144.758.146h.006c1.192.014 2.17-.941 2.184-2.133s-.941-2.17-2.133-2.184c-1.192-.014-2.17.941-2.184 2.133-.003.255.039.509.125.749l-4.96.605-8.091-8.133c-.099-.101-.235-.159-.377-.16-.14.001-.274.056-.373.155l-1.513 1.504c-.208.208-.208.546.0.754l.814.826c-3.153 5.798-2.129 12.978 2.519 17.663.043.041.092.074.146.098-.034.18-.051.364-.052.547v6.187h-6.4c-1.472.002-2.665 1.195-2.667 2.667v1.067c0 .295.239.533.533.533h24.533c.295.0.533-.239.533-.533v-1.067c-.002-1.472-1.195-2.665-2.667-2.667h-6.4v-2.742c1.003.21 2.024.317 3.049.32 2.458-.003 4.877-.615 7.04-1.783l.818.823c.099.101.235.159.377.16.14-.001.274-.056.373-.155l1.512-1.504c.208-.208.208-.546.0-.754zM23.28 6.233c.418-.415 1.093-.414 1.508.004s.414 1.093-.004 1.508c-.2.199-.47.31-.752.31h-.003c-.589-.003-1.064-.483-1.061-1.072.001-.282.114-.552.314-.751h-.002zM22.024 9.738l-.598 2.946-1.175-1.182 1.774-1.763zM21.418 8.836l-1.92 1.909-1.485-1.493 3.405-.415zM24.004 28.8c.884.0 1.6.716 1.6 1.6v.533h-23.467v-.533c0-.884.716-1.6 1.6-1.6h20.267zM16.537 26.667v1.067h-5.333v-1.067h5.333zM11.204 25.6v-4.053c0-1.294 1.196-2.347 2.667-2.347s2.667 1.053 2.667 2.347V25.6h-5.333zM17.604 23.904v-2.357c0-1.882-1.675-3.413-3.733-3.413-1.331-.02-2.576.657-3.281 1.786-4.058-4.274-4.971-10.645-2.279-15.887l18.602 18.708c-2.872 1.461-6.165 1.873-9.309 1.163zM28.893 23.22l-21.057-21.181.755-.752 7.935 7.98c.004.0.006.007.01.01l13.115 13.191-.757.752z"/><path fill="#2196f3" style="fill:var(--color2,#2196f3)" d="M13.876 20.267h-.005c-.884-.001-1.601.714-1.602 1.598s.714 1.601 1.598 1.602h.005c.884.001 1.601-.714 1.602-1.598s-.714-1.601-1.598-1.602zM14.249 22.245c-.1.1-.236.156-.378.155-.295-.002-.532-.242-.53-.536.001-.141.057-.276.157-.375s.233-.154.373-.155c.295.002.532.241.531.536-.001.141-.057.276-.157.375h.005z"/></symbol><symbol id="icon-astronaut" viewBox="0 0 32 32"><path fill="#2196f3" style="fill:var(--color2,#2196f3)" d="M31.974 4.524c-.063-.193-.229-.333-.43-.363l-1.91-.278-.855-1.731c-.179-.365-.777-.365-.956.0l-.855 1.731-1.91.278c-.201.029-.367.17-.431.363-.062.193-.011.405.135.547l1.383 1.348-.326 1.903c-.034.2.048.402.212.522.166.121.382.135.562.04l1.709-.899 1.709.899c.078.041.164.061.249.061.11.0.221-.034.314-.102.164-.119.246-.322.212-.522l-.326-1.903 1.383-1.348c.145-.142.197-.354.135-.547zM29.511 5.851c-.125.122-.183.299-.153.472l.191 1.114-1-.526c-.078-.041-.163-.061-.249-.061s-.17.02-.249.061l-1.001.526.191-1.114c.03-.173-.028-.349-.153-.472l-.81-.789 1.119-.163c.174-.025.324-.134.402-.292l.5-1.013.5 1.013c.078.157.228.267.402.292l1.119.163-.809.789z"/><path fill="#2196f3" style="fill:var(--color2,#2196f3)" d="M26.134 20.522h-1.067v1.067h1.067v-1.067z"/><path fill="#2196f3" style="fill:var(--color2,#2196f3)" d="M26.134 22.656h-1.067v1.067h1.067v-1.067z"/><path fill="#2196f3" style="fill:var(--color2,#2196f3)" d="M27.2 21.589h-1.067v1.067H27.2v-1.067z"/><path fill="#2196f3" style="fill:var(--color2,#2196f3)" d="M25.067 21.589H24v1.067h1.067v-1.067z"/><path fill="#2196f3" style="fill:var(--color2,#2196f3)" d="M22.4 26.389h-1.067v1.067H22.4v-1.067z"/><path fill="#2196f3" style="fill:var(--color2,#2196f3)" d="M22.4 28.522h-1.067v1.067H22.4v-1.067z"/><path fill="#2196f3" style="fill:var(--color2,#2196f3)" d="M23.467 27.456H22.4v1.067h1.067v-1.067z"/><path fill="#2196f3" style="fill:var(--color2,#2196f3)" d="M21.333 27.456h-1.067v1.067h1.067v-1.067z"/><path fill="#2196f3" style="fill:var(--color2,#2196f3)" d="M16 24.256h-1.067v1.067H16v-1.067z"/><path fill="#2196f3" style="fill:var(--color2,#2196f3)" d="M16 26.389h-1.067v1.067H16v-1.067z"/><path fill="#2196f3" style="fill:var(--color2,#2196f3)" d="M17.067 25.322H16v1.067h1.067v-1.067z"/><path fill="#2196f3" style="fill:var(--color2,#2196f3)" d="M14.933 25.322h-1.067v1.067h1.067v-1.067z"/><path fill="#2196f3" style="fill:var(--color2,#2196f3)" d="M5.867 6.122H4.8v1.067h1.067V6.122z"/><path fill="#2196f3" style="fill:var(--color2,#2196f3)" d="M5.867 8.255H4.8v1.067h1.067V8.255z"/><path fill="#2196f3" style="fill:var(--color2,#2196f3)" d="M6.933 7.189H5.866v1.067h1.067V7.189z"/><path fill="#2196f3" style="fill:var(--color2,#2196f3)" d="M4.8 7.189h-1.067v1.067H4.8V7.189z"/><path fill="#212121" style="fill:var(--color1,#212121)" d="M24.715 14.159c-.287-.388-.709-.637-1.188-.705-.481-.068-.956.058-1.34.352l-1.252.96-1.898 1.417-1.358-.541c2.421-1.086 4.114-3.508 4.114-6.32.0-3.823-3.123-6.933-6.961-6.933s-6.961 3.11-6.961 6.933c0 1.386.414 2.674 1.12 3.758l-2.764-.024c-.002.0-.003.0-.005.0-.009.0-.015.004-.023.005-.053.002-.105.013-.155.031-.013.005-.026.008-.038.013-.006.003-.013.003-.019.006l-3.233 1.596c-.001.0-.001.0-.001.001l-1.893.911c-.021.009-.042.021-.063.035-.755.502-1.012 1.489-.598 2.295.22.429.595.745 1.056.889.178.055.359.083.539.083.29.0.577-.071.839-.211l1.388-.738 2.264-1.169 1.357-.008-5.442 5.416c-.001.001-.001.001-.002.001l-1.339 1.333c-.316.315-.49.732-.49 1.178s.174.863.49 1.179c.325.323.752.485 1.179.485s.854-.162 1.18-.485l1.314-1.309 1.741-1.3.901.897-1.762 1.754c0 .001-.001.001-.002.001l-1.339 1.333c-.316.315-.49.732-.49 1.178s.174.863.49 1.179c.325.323.753.485 1.18.485s.855-.162 1.18-.485l3.482-3.467c.001-.001.001-.001.001-.002l1.01-1-.004-.004c.006-.006.015-.009.022-.015l5.166-5.658 3.471.494c.025.004.05.005.075.005.065.0.127-.015.187-.038.018-.006.033-.015.05-.023.019-.01.039-.015.058-.027l3.213-2.133c.012-.008.018-.021.029-.029.013-.01.029-.014.041-.026l1.271-1.191c.662-.62.753-1.635.212-2.362zM2.13 17.77c-.173.093-.37.111-.558.052-.187-.058-.338-.186-.427-.358-.161-.314-.068-.695.214-.902l1.314-.632.449 1.313-.992.527zM5.628 15.942l-1.548.8-.439-1.283 2.027-1.001-.04 1.484zM20.727 9.322c0 .918-.219 1.785-.599 2.559l-4.181-1.899c-.044-.573-.341-1.075-.788-1.388l1.464-4.86c2.378.756 4.105 2.974 4.105 5.588zm-11.789.0c0-3.235 2.644-5.867 5.894-5.867.253.0.5.021.745.052l-1.432 4.754c-.019-.001-.037-.006-.057-.006-1.033.0-1.873.837-1.873 1.867s.84 1.867 1.873 1.867c.694.0 1.294-.383 1.618-.945l3.862 1.755c-1.075 1.446-2.795 2.39-4.737 2.39-3.25.0-5.894-2.632-5.894-5.867zM14.894 10.122c0 .441-.362.8-.806.8s-.806-.359-.806-.8c0-.441.362-.8.806-.8s.806.359.806.8zM2.465 25.146c-.236.234-.619.234-.854.001-.114-.114-.176-.263-.176-.423s.062-.309.176-.421l.962-.959.851.848-.959.955zM5.679 28.88c-.236.234-.619.235-.855.001-.114-.114-.176-.263-.176-.423s.062-.309.176-.421l.963-.959.852.848-.96.955zM9.16 25.411c-.001.0-.001.0-.002.001l-1.765 1.76-.852-.848 1.763-1.755c0 0 0 0 0 0s.001-.001.002-.001c.04-.04.065-.088.09-.135.007-.014.02-.026.026-.04.017-.041.019-.085.026-.129.003-.025.014-.047.014-.073.0-.036-.013-.07-.02-.106-.006-.032-.006-.065-.019-.095-.02-.05-.055-.094-.091-.138-.01-.012-.014-.027-.025-.038.0.0.0.0-.001.0s-.001-.002-.001-.002l-1.607-1.6c-.017-.017-.039-.024-.058-.038-.028-.022-.055-.042-.087-.058-.03-.015-.061-.024-.093-.033-.034-.01-.067-.017-.103-.02-.033-.002-.063.001-.095.005-.036.004-.069.009-.104.02-.034.011-.063.027-.094.045-.02.011-.042.015-.061.029L4.23 23.486l-.901-.897 2.399-2.386 4.361 4.289-.928.919zM15.979 18.394c-.015-.002-.03.004-.045.003-.039-.002-.076.001-.115.007-.03.005-.059.011-.088.021-.034.012-.065.028-.097.047-.03.018-.057.037-.083.061-.013.011-.028.017-.04.029l-4.698 5.146-4.328-4.257 2.833-2.818c.209-.208.21-.546.002-.755-.105-.105-.243-.157-.381-.156v-.001l-2.219.013.028-1.607 3.104.027c1.265 1.294 3.029 2.101 4.981 2.101.437.0.864-.045 1.279-.123.04.032.079.065.13.085l2.41.96.152.758.178.885-3.003-.427zM20.02 18.572l-.313-1.558 1.446-1.08.947 1.257-2.08 1.381zM23.774 15.741l-.838.785-.931-1.236.831-.637c.155-.119.351-.168.543-.143.193.027.364.128.48.284.217.292.18.699-.085.947z"/><path fill="#212121" style="fill:var(--color1,#212121)" d="M13.602 18.544l-2.143-2.133c-.207-.207-.545-.207-.753.0l-2.142 2.133c-.1.101-.157.236-.157.378s.056.278.157.378l2.142 2.133c.104.103.241.155.377.155s.273-.052.376-.155l2.143-2.133c.1-.1.157-.236.157-.378s-.057-.278-.157-.378zM11.083 20.303l-1.387-1.381 1.387-1.381 1.387 1.381-1.387 1.381z"/><path fill="#212121" style="fill:var(--color1,#212121)" d="M17.164 5.071l-.258 1.036c.071.018 1.738.452 1.738 2.149h1.067c0-2.017-1.666-2.965-2.547-3.185z"/><path fill="#212121" style="fill:var(--color1,#212121)" d="M19.711 9.322h-1.067v1.067h1.067V9.322z"/></symbol><symbol id="icon-clock" viewBox="0 0 32 32"><path fill="#212121" style="fill:var(--color1,#212121)" d="M31.297 15.301c-.002-8.452-6.855-15.303-15.308-15.301s-15.303 6.855-15.301 15.308c.001 6.658 4.307 12.551 10.649 14.576.061.019.124.029.187.029.121.0.239-.032.343-.094.135-.08.236-.207.283-.356l3.865-12.25c1.057-.005 1.909-.866 1.903-1.923s-.866-1.909-1.923-1.903c-.284.001-.565.067-.82.191l-5.106-5.107c-.253-.245-.657-.238-.902.016-.239.247-.239.639.0.886l5.103 5.109c-.392.799-.168 1.764.536 2.309l-3.683 11.673c-7.278-2.681-11.004-10.754-8.323-18.032s10.754-11.004 18.032-8.323c7.278 2.681 11.004 10.754 8.324 18.032-1.31 3.556-4.001 6.431-7.462 7.973l-.398-1.874c-.073-.344-.411-.565-.756-.492-.109.023-.209.074-.292.148l-3.837 3.426c-.263.234-.287.637-.052.9.076.085.174.149.283.184l4.899 1.563c.335.108.694-.077.802-.412.034-.106.04-.219.017-.328l-.391-1.839c5.664-2.388 9.342-7.942 9.329-14.089zM15.992 14.664c.352.0.638.286.638.638s-.286.638-.638.638c-.352.0-.638-.285-.638-.638s.285-.638.638-.638zM18.093 29.528l2.184-1.948.603 2.84-2.787-.892z"/><path fill="#2196f3" style="fill:var(--color2,#2196f3)" d="M15.354 3.185V4.46c0 .352.285.638.638.638s.638-.285.638-.638V3.185c0-.352-.286-.638-.638-.638s-.638.286-.638.638z"/><path fill="#2196f3" style="fill:var(--color2,#2196f3)" d="M3.876 14.664c-.352.0-.638.286-.638.638s.285.638.638.638h1.275c.352.0.638-.285.638-.638s-.285-.638-.638-.638H3.876z"/><path fill="#2196f3" style="fill:var(--color2,#2196f3)" d="M28.108 15.939c.352.0.638-.285.638-.638s-.285-.638-.638-.638h-1.275c-.352.0-.638.286-.638.638s.286.638.638.638h1.275z"/></symbol><symbol id="icon-draght" viewBox="0 0 32 32"><path fill="#2196f3" style="fill:var(--color2,#2196f3)" d="M14.926 14.965h1.066v4.798h-1.066v-4.797z"/><path fill="#2196f3" style="fill:var(--color2,#2196f3)" d="M19.19 17.097h1.066v2.665H19.19v-2.665z"/><path fill="#2196f3" style="fill:var(--color2,#2196f3)" d="M10.661 18.696h1.066v1.066h-1.066v-1.066z"/><path fill="#2196f3" style="fill:var(--color2,#2196f3)" d="M7.463 18.163h1.066v1.599H7.463v-1.599z"/><path fill="#212121" style="fill:var(--color1,#212121)" d="M1.599 28.291h25.587c.883.0 1.599-.716 1.599-1.599V24.56c0-.883-.716-1.599-1.599-1.599h-.533V9.668l3.028-2.868c.703.346 1.553.136 2.013-.499s.396-1.508-.152-2.068-1.42-.644-2.065-.198c-.644.446-.873 1.292-.542 2.002l-2.281 2.163v-1.23c0-.883-.716-1.599-1.599-1.599h-21.322c-.883.0-1.599.716-1.599 1.599v15.992h-.533c-.883.0-1.599.716-1.599 1.599v2.132c0 .883.716 1.599 1.599 1.599zM30.384 4.837c.294.0.533.239.533.533s-.239.533-.533.533c-.294.0-.533-.239-.533-.533s.239-.533.533-.533zM3.198 6.969c0-.294.239-.533.533-.533h21.322c.294.0.533.239.533.533v2.239l-1.066 1.013V8.035c0-.294-.239-.533-.533-.533h-19.19c-.294.0-.533.239-.533.533v13.326c0 .294.239.533.533.533h19.19c.294.0.533-.239.533-.533v-9.674l1.066-1.01v12.284h-22.388v-15.992zM7.996 13.899c-.721-.002-1.354.478-1.546 1.174s.105 1.433.725 1.801c.62.368 1.41.276 1.928-.226l1.853.93c.215.108.476.057.636-.123l3.939-4.431 3.872 2.901c.208.156.498.139.686-.039l3.365-3.188v8.131h-18.124v-12.26h18.124v2.66l-3.771 3.572-3.904-2.927c-.222-.166-.534-.135-.718.072l-3.993 4.493-1.493-.746c.011-.064.018-.129.02-.193.0-.883-.716-1.599-1.599-1.599zM8.529 15.498c0 .294-.239.533-.533.533s-.533-.239-.533-.533c0-.294.239-.533.533-.533s.533.239.533.533zM11.727 24.026h5.331v.533c0 .294-.239.533-.533.533h-4.264c-.294.0-.533-.239-.533-.533v-.533zM1.066 24.56c0-.294.239-.533.533-.533h9.062v.533c0 .883.716 1.599 1.599 1.599h4.264c.883.0 1.599-.716 1.599-1.599v-.533h9.062c.294.0.533.239.533.533v2.132c0 .294-.239.533-.533.533h-25.587c-.294.0-.533-.239-.533-.533V24.56z"/></symbol><symbol id="icon-envelope" viewBox="0 0 43 32"><path d="M38.667.0H4C1.794.0.0 1.794.0 4v24c0 2.206 1.794 4 4 4h34.667c2.206.0 4-1.794 4-4V4c0-2.206-1.794-4-4-4zm0 2.667c.181.0.353.038.511.103l-17.844 15.466-17.844-15.466c.158-.066.33-.103.511-.103h34.667zM38.667 29.333H4c-.736.0-1.333-.598-1.333-1.333V5.587L20.46 21.008c.251.217.563.326.874.326s.622-.108.874-.326L40.001 5.587V28c0 .736-.598 1.333-1.333 1.333z"/></symbol><symbol id="icon-facebook" viewBox="0 0 32 32"><path d="M21.329 5.313h2.921v-5.088c-.504-.069-2.237-.225-4.256-.225-4.212.0-7.097 2.649-7.097 7.519V12h-4.648v5.688h4.648V32h5.699V17.689h4.46l.708-5.688h-5.169V8.082c.001-1.644.444-2.769 2.735-2.769z"/></symbol><symbol id="icon-instagram" viewBox="0 0 32 32"><path d="M16.059 7.783c-4.538.0-8.22 3.682-8.22 8.22s3.682 8.22 8.22 8.22c4.539.0 8.22-3.682 8.22-8.22s-3.682-8.22-8.22-8.22zm0 13.552c-2.944.0-5.332-2.388-5.332-5.332s2.388-5.332 5.332-5.332c2.944.0 5.332 2.388 5.332 5.332s-2.388 5.332-5.332 5.332z"/><path d="M26.524 7.458c0 1.06-.859 1.919-1.919 1.919s-1.919-.859-1.919-1.919c0-1.06.859-1.919 1.919-1.919s1.919.859 1.919 1.919z"/><path d="M31.969 9.408c-.075-1.7-.35-2.869-.744-3.882-.406-1.075-1.031-2.038-1.85-2.838-.8-.813-1.769-1.444-2.832-1.844-1.019-.394-2.182-.669-3.882-.744-1.713-.081-2.257-.1-6.601-.1s-4.888.019-6.595.094c-1.7.075-2.869.35-3.882.744-1.075.406-2.038 1.031-2.838 1.85-.813.8-1.444 1.769-1.844 2.832-.394 1.019-.669 2.182-.744 3.882-.081 1.713-.1 2.257-.1 6.601s.019 4.888.094 6.595c.075 1.7.35 2.869.744 3.882.406 1.075 1.038 2.038 1.85 2.838.8.813 1.769 1.444 2.832 1.844 1.019.394 2.182.669 3.882.744 1.706.075 2.25.094 6.595.094s4.888-.019 6.595-.094c1.7-.075 2.869-.35 3.882-.744 2.151-.832 3.851-2.532 4.682-4.682.394-1.019.669-2.182.744-3.882.075-1.707.094-2.251.094-6.595s-.006-4.888-.081-6.595zM29.087 22.473c-.069 1.563-.331 2.407-.55 2.969-.538 1.394-1.644 2.5-3.038 3.038-.563.219-1.413.481-2.969.55-1.688.075-2.194.094-6.464.094s-4.782-.019-6.464-.094c-1.563-.069-2.407-.331-2.969-.55-.694-.256-1.325-.663-1.838-1.194-.531-.519-.938-1.144-1.194-1.838-.219-.563-.481-1.413-.55-2.969-.075-1.688-.094-2.194-.094-6.464s.019-4.782.094-6.464c.069-1.563.331-2.407.55-2.969.256-.694.663-1.325 1.2-1.838.519-.531 1.144-.938 1.838-1.194.563-.219 1.413-.481 2.969-.55 1.688-.075 2.194-.094 6.464-.094 4.276.0 4.782.019 6.464.094 1.563.069 2.407.331 2.969.55.694.256 1.325.662 1.838 1.194.531.519.938 1.144 1.194 1.838.219.563.481 1.413.55 2.969.075 1.688.094 2.194.094 6.464s-.019 4.77-.094 6.458z"/></symbol><symbol id="icon-linkedin" viewBox="0 0 32 32"><path d="M31.992 32v-.001H32v-11.736c0-5.741-1.236-10.164-7.948-10.164-3.227.0-5.392 1.771-6.276 3.449h-.093v-2.913h-6.364v21.364h6.627v-10.579c0-2.785.528-5.479 3.977-5.479 3.399.0 3.449 3.179 3.449 5.657v10.401h6.62z"/><path d="M.528 10.636h6.635V32h-6.635V10.636z"/><path d="M3.843.0C1.722.0.0 1.721.0 3.843s1.721 3.879 3.843 3.879c2.121.0 3.843-1.757 3.843-3.879-.001-2.121-1.723-3.843-3.843-3.843v0z"/></symbol><symbol id="logo-1" viewBox="0 0 29 32"><path d="M3.84.0l4.677 4.428h13.046v12.351l4.677 4.428v-21.206H3.84z"/><path d="M0 4.241v20.6h21.76v-8.188l-13.105-12.406-8.655-.005zM17.615 21.828h-14.172V7.974h1.002V20.89h13.17v.938z"/><path d="M6.266 28.662l.523-1.078h.438l-.763 1.438v.837h-.397v-.837l-.764-1.438h.439l.523 1.078zM8.513 29.329h-.881l-.184.53h-.411l.859-2.275h.355l.861 2.275H8.7l-.186-.53zM7.743 29.01h.659l-.33-.944-.33.944zM10.071 29.244c0-.105.029-.202.086-.289.057-.089.17-.193.339-.314-.088-.111-.151-.206-.186-.284s-.052-.154-.052-.227c0-.178.054-.319.162-.422s.254-.156.438-.156c.166.0.301.049.406.147.106.097.159.217.159.361.0.095-.024.182-.072.262-.048.079-.127.158-.236.238l-.155.113.439.519c.064-.125.095-.264.095-.417h.33c0 .28-.066.51-.197.689l.334.395h-.441l-.128-.152c-.162.122-.356.183-.581.183s-.405-.059-.541-.178c-.134-.12-.202-.276-.202-.467zM10.824 29.587c.128.0.248-.043.359-.128l-.497-.586-.048.034c-.125.095-.188.203-.188.325.0.105.034.191.102.256s.158.098.272.098zM10.615 28.121c0 .087.054.197.161.33l.173-.119.048-.039c.065-.057.097-.131.097-.22.0-.059-.022-.11-.067-.152-.045-.043-.102-.064-.17-.064-.074.0-.133.025-.177.075s-.066.113-.066.189zM14.748 29.118c-.023.243-.113.432-.269.569-.156.135-.364.203-.623.203-.181.0-.341-.043-.48-.128-.137-.086-.244-.209-.319-.367s-.114-.342-.117-.552v-.212c0-.215.038-.404.114-.567s.185-.29.327-.378c.143-.088.307-.133.494-.133.251.0.453.068.606.205s.242.329.267.578h-.394c-.019-.164-.067-.281-.144-.353-.076-.073-.188-.109-.336-.109-.172.0-.304.063-.397.189-.092.125-.139.309-.141.552v.202c0 .246.044.433.131.563s.218.194.387.194c.155.0.272-.035.35-.105s.128-.186.148-.348h.394zM16.918 28.78c0 .223-.039.419-.116.588-.077.168-.188.297-.331.388-.143.09-.307.134-.494.134-.184.0-.349-.045-.494-.134-.144-.091-.255-.219-.334-.386-.078-.167-.118-.359-.119-.576v-.128c0-.222.039-.418.117-.588.079-.17.19-.299.333-.389.144-.091.308-.136.494-.136s.349.045.492.134c.144.088.255.217.333.384s.118.361.119.583v.127zM16.523 28.662c0-.252-.048-.445-.144-.58-.095-.134-.23-.202-.405-.202-.171.0-.305.067-.402.202-.096.133-.145.322-.147.567v.131c0 .25.048.443.145.58s.233.205.406.205c.175.0.309-.067.403-.2.095-.133.142-.328.142-.584v-.119z"/></symbol><symbol id="logo-2" viewBox="0 0 25 32"><path d="M10.447 1.806h.084c.156.0.324.016.49.03.734.052 1.463.162 2.179.329V.403c-.738-.185-1.491-.305-2.25-.358-.288-.022-.595-.036-.909-.044h-.263c-1.523.006-3.039.201-4.515.582-1.68.419-3.293 1.075-4.79 1.948v17.475c1.442-.783 2.976-1.381 4.566-1.779 1.256-.32 2.539-.517 3.833-.588h.051c.216-.011.433-.017.655-.019v-1.79c-1.681.022-3.353.244-4.982.662-.602.157-1.185.325-1.731.513l-.623.211v-13.625l.266-.128c2.032-.963 4.229-1.524 6.471-1.651.019-.001.037-.001.056.0.248-.013.497-.019.741-.019h.28c.129.003.258.006.388.014z"/><path d="M14.837 3.651c-.409.0-.814-.014-1.205-.044-.467-.034-.947-.091-1.401-.167-.277-.047-.55-.103-.814-.164v17.275c1.12.277 2.271.413 3.425.404 1.523-.006 3.039-.201 4.515-.581 1.68-.42 3.294-1.075 4.792-1.948v-17.163c-1.442.783-2.975 1.381-4.564 1.781-1.551.398-3.145.603-4.747.609zM21.745 3.95l.623-.21v13.63l-.266.128c-1.021.486-2.087.869-3.184 1.144-1.331.344-2.7.522-4.074.527-.411.0-.819-.017-1.214-.052l-.427-.038v-14.017l.497.033c.361.023.735.034 1.141.034 1.745-.006 3.482-.229 5.173-.663.581-.153 1.158-.325 1.731-.518z"/><path d="M1.684 25.977c-.09-.093-.197-.166-.317-.214s-.247-.071-.376-.066c-.137-.002-.273.024-.4.075-.117.046-.222.116-.311.205s-.156.196-.201.313c-.049.123-.073.254-.072.387v2.335c-.006.165.026.328.092.479.055.12.135.226.233.313.093.079.203.135.321.166.114.032.231.048.349.049.13.001.259-.027.377-.081.117-.051.222-.124.311-.216.087-.091.156-.197.204-.313.05-.118.075-.244.075-.372v-.261h-.61v.208c.002.071-.01.142-.036.208-.02.05-.05.095-.089.131-.038.031-.081.053-.128.067-.041.014-.084.021-.128.022-.054.006-.11-.002-.16-.024s-.094-.057-.126-.101c-.058-.094-.086-.203-.081-.313v-2.177c-.004-.121.022-.241.075-.349.032-.049.077-.089.129-.114s.112-.034.17-.027c.053-.002.105.009.152.032s.089.057.12.099c.068.09.104.2.101.313v.202h.604v-.238c.001-.14-.024-.278-.075-.408-.045-.122-.114-.234-.204-.329z"/><path d="M5.31 25.95c-.195-.164-.44-.255-.694-.257-.124.0-.248.023-.364.066-.119.042-.228.107-.322.191-.101.091-.182.202-.237.327-.061.143-.092.297-.089.452v2.239c-.004.158.026.314.089.459.055.12.136.227.237.313.093.087.203.154.322.197.117.043.24.065.364.066s.248-.023.364-.066c.121-.044.233-.111.33-.197.097-.087.176-.194.23-.313.063-.145.093-.301.089-.459v-2.239c.003-.155-.027-.31-.089-.452-.054-.123-.133-.235-.23-.327zM5.025 28.969c.005.06-.003.12-.024.176s-.054.107-.097.148c-.081.068-.182.105-.287.105s-.207-.037-.287-.105c-.043-.041-.076-.092-.097-.148s-.029-.116-.024-.176V26.73c-.005-.06.003-.12.024-.176s.054-.107.097-.148c.081-.068.182-.105.287-.105s.207.037.287.105c.043.041.076.092.097.148s.029.116.024.176v2.239z"/><path d="M10.072 29.969V25.73h-.587l-.771 2.244h-.011l-.777-2.244h-.581v4.239h.606V27.39h.011l.593 1.823h.302l.598-1.823h.011v2.579h.606z"/><path d="M13.513 26.027c-.093-.105-.211-.184-.342-.232-.142-.046-.29-.068-.439-.066h-.9v4.239h.604v-1.656h.311c.188.009.376-.031.545-.116.137-.076.252-.188.332-.324.07-.113.117-.238.139-.369.024-.16.035-.321.033-.482.006-.204-.014-.407-.059-.606-.04-.147-.117-.281-.223-.39zM13.201 27.319c-.003.077-.022.152-.056.221-.035.065-.089.117-.156.149-.089.04-.187.058-.285.053h-.276v-1.441h.311c.094-.005.187.014.273.053.062.036.112.091.142.157.033.074.051.155.053.236.0.089.0.183.0.282s.006.2.0.291h-.006z"/><path d="M16.374 25.73h-.495l-.934 4.239h.604l.177-.911h.824l.177.911h.604l-.957-4.239zM15.817 28.481l.297-1.537h.011l.296 1.537h-.604z"/><path d="M20.277 28.284h-.011l-.912-2.554h-.581v4.239h.604V27.42h.012l.923 2.549h.568V25.73h-.604v2.554z"/><path d="M23.968 25.73l-.486 1.685h-.012l-.486-1.685h-.64l.83 2.447v1.792h.604v-1.792l.83-2.447h-.64z"/><path d="M0 31.166h.291v.817h.198v-.817h.29v-.167h-.778v.167z"/><path d="M2.447 30.998l-.381.984h.21l.081-.224h.392l.084.224h.215l-.391-.984h-.21zM2.416 31.593l.134-.365.134.365h-.268z"/><path d="M4.866 31.62h.227v.127c-.066.053-.149.082-.234.083-.04.002-.079-.005-.116-.021s-.068-.041-.093-.072c-.052-.075-.078-.165-.073-.257.0-.219.095-.329.283-.329.05-.005.099.008.14.037s.07.071.082.12l.195-.038c-.042-.192-.181-.289-.417-.289-.127-.003-.25.042-.344.127-.05.049-.088.108-.112.174s-.034.135-.029.205c-.006.135.039.267.126.369.048.05.107.088.171.113s.134.035.203.031c.154.004.304-.052.417-.157v-.388h-.427v.166z"/><path d="M7.337 30.998h-.199v.984h.69v-.167h-.49v-.817z"/><path d="M9.426 30.998h-.199v.984h.199v-.984z"/><path d="M11.469 31.656l-.403-.657h-.193v.984h.185v-.643l.395.643h.198v-.984h-.182v.657z"/><path d="M13.315 31.549h.49v-.167h-.49v-.216h.528v-.167h-.727v.984h.747v-.167h-.548v-.266z"/><path d="M17.792 31.387h-.388v-.388h-.198v.984h.198v-.43h.388v.43h.198v-.984h-.198v.388z"/><path d="M19.649 31.549h.492v-.167h-.492v-.216h.529v-.167h-.727v.984h.746v-.167h-.548v-.266z"/><path d="M22.168 31.549c.171-.027.258-.117.258-.274.005-.042-.001-.084-.018-.123s-.044-.072-.078-.096c-.089-.045-.189-.065-.288-.058h-.417v.984h.198v-.412h.039c.042-.003.084.005.123.022.029.018.053.043.07.072l.215.313h.237l-.12-.192c-.053-.095-.128-.176-.218-.236zM21.969 31.413h-.146v-.247h.156c.068-.005.136.002.201.023.014.013.026.029.033.046s.011.037.01.056c-.001.019-.006.038-.015.055s-.022.032-.037.043c-.065.02-.133.028-.201.023z"/><path d="M24.067 31.549h.49v-.167h-.49v-.216h.529v-.167h-.729v.984h.747v-.167h-.548v-.266z"/></symbol><symbol id="logo-3" viewBox="0 0 31 32"><path d="M4.722 31.103c.011.0.022.003.032.007s.019.011.027.018l.153.161c-.119.13-.266.234-.431.305-.193.077-.401.115-.611.109-.197.004-.392-.031-.574-.102-.164-.065-.312-.164-.433-.288-.123-.129-.218-.28-.279-.445-.067-.184-.1-.377-.098-.571-.003-.195.033-.39.105-.573.067-.166.168-.317.297-.445.131-.126.287-.224.459-.29.189-.07.389-.104.591-.102.188-.004.375.027.549.093.152.063.291.15.412.257l-.128.171c-.009.012-.02.023-.033.031-.015.01-.033.014-.052.013-.02-.001-.039-.008-.056-.018l-.069-.046-.096-.058c-.041-.022-.084-.041-.128-.057-.057-.019-.115-.035-.174-.046-.075-.013-.151-.019-.228-.018-.146-.002-.29.024-.425.077-.126.048-.239.122-.333.215-.095.099-.169.216-.216.343-.054.145-.08.298-.078.452-.002.156.024.312.078.46.047.126.119.242.212.341.088.093.196.165.318.212.125.049.259.074.394.073.078.001.156-.004.234-.015.126-.015.247-.056.354-.122.054-.034.104-.072.151-.113.02-.018.046-.028.073-.029z"/><path d="M9.144 30.296c.002.194-.033.386-.103.567-.062.165-.161.315-.288.44s-.282.224-.452.289c-.375.136-.789.136-1.164.0-.169-.066-.323-.165-.45-.29-.128-.128-.227-.279-.291-.445-.138-.367-.138-.769.0-1.136.065-.166.164-.317.291-.447.128-.121.281-.216.45-.279.374-.139.79-.139 1.164.0.17.066.324.165.452.29.126.127.224.276.289.44.071.183.106.376.103.571zM8.742 30.296c.003-.155-.022-.309-.073-.456-.043-.126-.113-.242-.205-.341-.09-.094-.2-.167-.323-.215-.272-.1-.574-.1-.846.0-.123.048-.234.121-.324.215-.093.098-.164.215-.207.341-.097.297-.097.615.0.912.043.126.114.242.207.341.09.093.2.166.324.213.273.097.573.097.846.0.123-.047.234-.12.323-.213.092-.099.162-.215.205-.341.051-.147.076-.301.073-.456z"/><path d="M12.161 30.774l.04.102c.015-.036.029-.069.044-.102.015-.034.031-.068.05-.1l.978-1.694c.019-.029.036-.047.056-.053.026-.008.053-.011.08-.009h.289v2.755h-.343v-2.026c0-.026.0-.055.0-.086-.002-.032-.002-.063.0-.095l-.984 1.718c-.012.026-.033.047-.058.063s-.054.023-.084.023h-.056c-.03.0-.059-.007-.084-.023s-.045-.037-.057-.063l-1.013-1.729c0 .033.0.066.0.099s0 .062.0.088v2.026h-.331v-2.75h.289c.027-.002.054.002.08.009.024.011.043.03.054.053l.999 1.696c.02.031.036.064.05.098z"/><path d="M15.842 30.638v1.032h-.383v-2.752h.854c.161-.003.322.017.477.06.124.033.239.092.337.171.085.075.151.167.191.27.045.112.067.232.065.352.002.121-.022.24-.071.352-.046.106-.117.2-.207.275-.098.083-.214.145-.339.182-.149.045-.305.067-.461.064l-.463-.007zM15.842 30.342h.463c.101.001.201-.013.297-.042.079-.025.152-.066.214-.119.058-.05.102-.113.13-.182.031-.074.047-.152.046-.232.004-.076-.009-.153-.038-.224s-.075-.135-.134-.188c-.146-.109-.33-.162-.515-.148h-.463v1.134z"/><path d="M20.987 31.673h-.302c-.03.001-.06-.008-.084-.026-.022-.017-.039-.039-.05-.064l-.26-.666h-1.307l-.27.666c-.01.024-.026.046-.048.062-.024.019-.055.028-.086.027h-.302l1.148-2.756h.398l1.164 2.756zM19.092 30.65h1.08l-.456-1.122c-.035-.084-.064-.171-.086-.259l-.044.144c-.013.044-.029.084-.042.117l-.452 1.12z"/><path d="M22.641 28.931c.023.012.043.029.057.049l1.675 2.077c0-.033.0-.066.0-.097s0-.062.0-.091v-1.951h.343v2.756h-.191c-.027.001-.054-.005-.078-.016-.024-.013-.044-.03-.061-.051l-1.673-2.075c.002.032.002.063.0.095.0.031.0.058.0.084v1.964h-.343v-2.756h.203c.024-.001.047.004.069.013z"/><path d="M27.537 30.577v1.094h-.383v-1.094l-1.059-1.66h.343c.029-.002.059.007.082.024.021.018.038.039.052.062l.662 1.071c.027.046.05.088.069.128s.034.078.048.117l.05-.119c.019-.043.04-.085.065-.126l.653-1.078c.014-.021.03-.041.05-.058.023-.019.052-.029.082-.027h.346l-1.06 1.667z"/><path d="M11.971 24.293c.167.02.335.036.505.051 2.583-1.101 4.768-2.902 6.282-5.18s2.29-4.929 2.231-7.624l-2.846-2.712c.579 2.869.308 5.836-.782 8.567s-2.956 5.12-5.389 6.898z"/><path d="M10.955 24.167l.077.015c2.6-1.772 4.583-4.247 5.691-7.104s1.292-5.965.526-8.922l-4.054-3.862c1.64 3.175 2.3 6.728 1.903 10.246s-1.833 6.857-4.143 9.628z"/><path d="M24.704 14.725c-.689 2.961-2.362 5.632-4.77 7.616-.703.582-1.462 1.101-2.266 1.55 1.961-.549 3.764-1.52 5.269-2.838s2.672-2.947 3.412-4.763l-1.644-1.565z"/><path d="M24.059 14.289l-2.341-2.23c-.045 2.543-.803 5.028-2.197 7.197s-3.372 3.943-5.729 5.137h.011c.525.0 1.05-.03 1.572-.089 2.203-.857 4.148-2.219 5.664-3.967s2.553-3.825 3.021-6.047z"/><path d="M11.294 2.664l-2.793-2.664c-2.497.919-4.644 2.535-6.161 4.636s-2.332 4.589-2.34 7.139v0c.009 2.818 1.005 5.552 2.829 7.77s4.372 3.793 7.242 4.476c2.561-2.973 4.061-6.647 4.281-10.488s-.851-7.648-3.058-10.869z"/><path d="M30.512 13.878c-.01-3.343-1.409-6.546-3.89-8.91s-5.843-3.696-9.352-3.706c-1.621-.002-3.229.283-4.741.841l17.099 16.291c.585-1.44.885-2.971.884-4.515z"/></symbol><symbol id="logo-4" viewBox="0 0 60 32"><path d="M9.229 9.548h-.002c-1.684.0-3.048 1.33-3.048 2.971v.002c0 1.641 1.365 2.971 3.048 2.971h.002c1.684.0 3.048-1.33 3.048-2.971v-.002c0-1.641-1.365-2.971-3.048-2.971z"/><path d="M31.73 8.599c-.005-2.279-.936-4.463-2.589-6.074s-3.894-2.519-6.233-2.524v0c-2.339.004-4.581.911-6.235 2.523s-2.586 3.796-2.59 6.076v12.566c0 0 17.645-1.915 17.647-12.564V8.6z"/><path d="M0 25.289c.004 1.586.652 3.105 1.803 4.226s2.709 1.753 4.336 1.758c1.627-.005 3.185-.636 4.336-1.757s1.799-2.64 1.803-4.225v-8.744c0 0-12.278 1.334-12.278 8.742zM6.139 26.856c-.318.0-.629-.092-.893-.264s-.47-.417-.592-.703-.154-.601-.091-.905c.062-.304.215-.583.44-.802s.511-.368.823-.429c.312-.06.635-.029.929.089s.545.319.721.577c.177.258.271.561.271.87.001.206-.04.411-.121.601s-.199.364-.348.51c-.149.146-.327.262-.522.341s-.405.12-.617.12v-.006z"/><path d="M18.671 25.884h-1.256v1.297h-.654v-3.174h2.067v.53h-1.413v.82h1.256v.528zM21.815 25.666c0 .312-.055.587-.166.822s-.269.417-.475.545c-.205.128-.44.192-.706.192-.263.0-.498-.063-.704-.19s-.366-.307-.48-.541c-.113-.235-.171-.506-.172-.811v-.157c0-.312.056-.587.168-.824.113-.238.273-.421.477-.547.206-.128.442-.192.706-.192s.499.064.704.192c.206.126.366.309.477.547.113.237.17.511.17.822v.142zM21.152 25.522c0-.333-.06-.586-.179-.759s-.289-.259-.51-.259c-.219.0-.389.086-.508.257-.119.17-.18.42-.181.75v.155c0 .324.06.576.179.754s.291.268.515.268c.22.0.388-.086.506-.257.118-.173.177-.424.179-.754v-.155zM23.936 26.348c0-.124-.044-.218-.131-.283-.087-.067-.244-.137-.471-.209-.227-.074-.406-.147-.539-.218-.36-.195-.541-.457-.541-.787.0-.172.048-.324.144-.458.097-.135.236-.241.416-.316.182-.076.385-.113.61-.113.227.0.429.041.606.124.177.081.315.197.412.347.099.15.148.32.148.51h-.654c0-.145-.046-.258-.137-.338-.092-.081-.22-.122-.386-.122-.16.0-.284.034-.373.102-.089.067-.133.156-.133.266.0.103.052.19.155.259.105.07.258.135.46.196.372.112.643.251.813.416s.255.372.255.619c0 .275-.104.491-.312.648-.208.156-.488.233-.839.233-.244.0-.467-.044-.667-.133-.201-.09-.354-.213-.46-.368-.105-.156-.157-.336-.157-.541h.656c0 .35.209.525.628.525.156.0.277-.031.364-.094.087-.064.131-.153.131-.266zM27.427 24.536h-.972v2.645h-.654v-2.645h-.959v-.53h2.586v.53zM29.712 25.805h-1.256v.85h1.474v.525h-2.128v-3.174h2.124v.53h-1.469v.757h1.256v.512zM31.489 26.019h-.521v1.162h-.654v-3.174h1.18c.375.0.664.084.868.251s.305.403.305.709c0 .217-.047.397-.142.543-.093.144-.235.259-.425.344l.687 1.297v.03h-.702l-.595-1.162zM30.967 25.489h.528c.164.0.291-.041.382-.124.09-.084.135-.2.135-.347.0-.15-.043-.267-.129-.353-.084-.086-.214-.129-.39-.129h-.525v.953zM34.931 26.063v1.118h-.654v-3.174h1.238c.238.0.448.044.628.131.182.087.321.212.419.373.097.16.146.342.146.547.0.311-.107.557-.321.737-.212.179-.507.268-.883.268h-.573zM34.931 25.533h.584c.173.0.305-.041.395-.122.092-.081.137-.198.137-.349.0-.156-.046-.281-.137-.377s-.218-.145-.379-.148h-.6v.996zM39.069 25.805h-1.256v.85h1.474v.525h-2.128v-3.174h2.124v.53h-1.469v.757h1.256v.512zM42.104 24.536h-.972v2.645h-.654v-2.645h-.959v-.53h2.586v.53zM44.389 25.805h-1.256v.85h1.474v.525h-2.128v-3.174h2.124v.53h-1.469v.757h1.256v.512zM46.166 26.019h-.521v1.162h-.654v-3.174h1.179c.375.0.664.084.868.251s.305.403.305.709c0 .217-.047.397-.142.543-.093.144-.235.259-.425.344l.687 1.297v.03h-.702l-.595-1.162zM45.645 25.489h.528c.164.0.291-.041.382-.124.09-.084.135-.2.135-.347.0-.15-.043-.267-.129-.353-.084-.086-.214-.129-.39-.129h-.525v.953zM49.489 26.348c0-.124-.044-.218-.131-.283-.087-.067-.244-.137-.471-.209-.227-.074-.406-.147-.538-.218-.36-.195-.541-.457-.541-.787.0-.172.048-.324.144-.458.097-.135.236-.241.416-.316.182-.076.385-.113.61-.113.227.0.429.041.606.124.177.081.315.197.412.347.099.15.148.32.148.51h-.654c0-.145-.046-.258-.137-.338-.092-.081-.22-.122-.386-.122-.16.0-.284.034-.373.102-.089.067-.133.156-.133.266.0.103.052.19.155.259.105.07.258.135.46.196.372.112.643.251.813.416s.255.372.255.619c0 .275-.104.491-.312.648-.208.156-.488.233-.839.233-.244.0-.467-.044-.667-.133-.201-.09-.354-.213-.46-.368-.105-.156-.157-.336-.157-.541h.656c0 .35.209.525.628.525.156.0.277-.031.364-.094.087-.064.131-.153.131-.266z"/></symbol><symbol id="logo-5" viewBox="0 0 40 32"><path d="M3.055 26.742c.156.194.24.438.236.688.008.163-.021.326-.084.476s-.159.285-.281.393c-.304.231-.681.343-1.061.317h-1.865v-4.361h1.827c.361-.024.718.078 1.012.29.118.099.211.224.273.366s.089.296.081.45c.011.241-.065.477-.212.667-.142.173-.338.293-.556.341.247.045.471.177.63.373zM.868 26.084h.781c.177.013.354-.038.496-.145.059-.053.104-.12.133-.193s.041-.153.034-.233c.006-.079-.006-.158-.035-.232s-.073-.14-.13-.194c-.147-.11-.329-.162-.511-.147h-.768v1.144zM2.222 27.756c.063-.055.112-.123.144-.2s.046-.16.041-.243c.005-.084-.01-.168-.042-.246s-.083-.147-.146-.202c-.153-.114-.341-.17-.53-.158h-.819v1.199h.83c.187.011.372-.043.524-.151z"/><path d="M6.79 28.617l-1.016-1.704h-.382v1.704h-.874v-4.361h1.655c.417-.029.83.104 1.152.371.231.237.371.549.393.879s-.073.659-.27.925c-.204.235-.483.391-.789.443l1.082 1.743h-.951zM5.392 26.318h.715c.497.0.745-.22.745-.66.005-.09-.008-.18-.04-.264s-.08-.161-.143-.226c-.157-.131-.359-.195-.562-.177h-.724l.008 1.327z"/><path d="M11.568 27.739H9.826l-.308.878h-.917l1.6-4.312h.991l1.593 4.312h-.917l-.301-.878zM11.335 27.079l-.637-1.841-.637 1.841h1.273z"/><path d="M17.55 28.617h-.868l-1.946-2.965v2.965h-.866v-4.361h.866l1.946 2.983v-2.983h.868v4.361z"/><path d="M22.502 27.573c-.179.329-.453.597-.785.769-.378.192-.797.286-1.22.275h-1.545v-4.361h1.545c.422-.011.841.081 1.22.268.332.168.606.433.785.761.179.355.272.747.272 1.144s-.093.789-.272 1.144zM21.509 27.469c.248-.29.384-.659.384-1.041s-.136-.751-.384-1.041c-.299-.262-.69-.396-1.086-.371h-.603v2.823h.603c.397.025.787-.108 1.086-.371z"/><path d="M12.111.0c0 0 11.201 4.246 10.963 10.39v10.392c0 0-11.193-4.248-10.959-10.392l-.004-10.39z"/><path d="M33.054 18.349c2.115-1.462 4.562-2.367 7.117-2.633v-3.253c-2.943 1.139-5.44 3.204-7.117 5.886z"/><path d="M31.783 19.329c1.731-3.5 4.733-6.202 8.388-7.548V2.407c0 0-15.952 6.048-15.614 14.797v14.795c0 0 .711-.27 1.829-.778.0-.473.0-.95.051-1.43.33-4.062 2.253-7.826 5.347-10.464z"/><path d="M30.266 24.825c.084-1.026.271-2.041.558-3.029-1.926 2.279-3.093 5.106-3.335 8.085-.023.281-.036.562-.042.852.906-.437 1.96-.982 3.068-1.623-.283-1.409-.366-2.851-.248-4.284z"/><path d="M30.9 24.878c-.106 1.296-.04 2.601.197 3.879 4.358-2.618 9.255-6.664 9.067-11.553v-.426c-3.114.35-6.027 1.716-8.292 3.89-.53 1.347-.858 2.766-.972 4.21z"/></symbol><symbol id="logo-6" viewBox="0 0 62 32"><path d="M31.124 14.854c-.291-.424-.43-.926-.397-1.431v-2.075c0-.636.132-1.119.395-1.45s.715-.495 1.356-.494c.602.0 1.029.141 1.282.422.276.359.41.798.379 1.241v.488h-1.077v-.494c.004-.162-.007-.323-.031-.483-.016-.109-.07-.211-.154-.287-.111-.082-.25-.122-.39-.112-.148-.01-.294.032-.41.118-.094.085-.156.196-.178.317-.031.169-.045.341-.042.513v2.518c-.017.243.031.486.138.707.054.075.128.134.215.171s.183.051.278.04c.138.011.275-.03.381-.114.088-.082.144-.19.161-.306.025-.167.036-.336.033-.505v-.511h1.077v.466c.03.462-.101.92-.372 1.304-.247.308-.669.462-1.289.462s-1.088-.165-1.353-.507z"/><path d="M35.607 14.876c-.272-.323-.408-.794-.408-1.416v-2.182c0-.616.136-1.083.408-1.399s.727-.474 1.364-.473c.633.0 1.086.158 1.358.473.272.317.41.783.41 1.399v2.182c0 .616-.138 1.089-.415 1.414s-.727.488-1.353.488c-.626.0-1.09-.165-1.364-.485zM37.474 14.352c.097-.202.142-.424.129-.646v-2.672c.013-.218-.031-.435-.127-.633-.055-.076-.131-.137-.22-.174s-.187-.05-.284-.037c-.097-.013-.195.0-.285.037s-.166.097-.221.174c-.098.198-.142.415-.129.633v2.685c-.014.222.031.444.129.646.063.068.14.123.227.16s.181.057.277.057c.096.0.19-.019.277-.057s.164-.092.227-.16v-.013z"/><path d="M40.035 9.468h1.159l.872 4.027.892-4.027h1.128l.114 5.812h-.834l-.089-4.04-.861 4.04h-.669l-.892-4.054-.082 4.054h-.843l.105-5.812z"/><path d="M45.5 9.468h1.806c1.04.0 1.561.55 1.561 1.65.0 1.054-.548 1.58-1.643 1.579h-.615v2.583h-1.115l.007-5.812zM47.042 11.952c.11.013.222.004.328-.028s.203-.085.285-.156c.128-.196.184-.427.16-.656.006-.177-.012-.355-.053-.528-.016-.058-.044-.112-.082-.159s-.086-.087-.141-.117c-.155-.07-.326-.102-.497-.093h-.432v1.737h.432z"/><path d="M50.474 9.468h1.197l1.228 5.812H51.86l-.243-1.34h-1.068l-.25 1.34h-1.055l1.228-5.812zM51.497 13.267l-.417-2.44-.417 2.44h.834z"/><path d="M53.892 9.468h.78l1.494 3.316V9.468h.925v5.812h-.742l-1.503-3.461v3.461h-.957l.002-5.812z"/><path d="M59.258 13.064l-1.242-3.588h1.046l.758 2.305.711-2.305h1.023l-1.226 3.588v2.216h-1.07v-2.216z"/><path d="M32.845 17.822v.304h-.91v2.362h-.381v-2.362h-.914v-.304h2.205z"/><path d="M35.697 20.488h-.294c-.03.002-.059-.007-.083-.025-.022-.015-.039-.037-.049-.061l-.263-.633h-1.262l-.263.633c-.007.026-.021.051-.04.072-.023.018-.053.027-.083.025h-.294l1.115-2.666h.388l1.128 2.655zM33.85 19.498h1.052l-.446-1.085c-.033-.082-.06-.166-.083-.251-.016.051-.029.099-.042.141l-.04.112-.441 1.083z"/><path d="M37.618 20.226c.07.003.14.003.21.0.06-.006.12-.016.178-.032.055-.013.108-.029.16-.049.049-.019.098-.042.149-.065v-.599h-.446c-.011.001-.022-.001-.032-.005s-.02-.009-.028-.017c-.007-.006-.013-.014-.017-.022s-.006-.018-.005-.027v-.205h.865v1.022c-.071.048-.145.09-.223.127-.08.037-.162.068-.247.091-.091.025-.184.044-.279.055-.108.011-.217.017-.325.017-.192.002-.383-.032-.562-.099-.167-.064-.319-.158-.446-.279-.124-.122-.222-.265-.288-.422-.07-.177-.105-.364-.103-.553-.002-.19.032-.379.1-.557.064-.158.162-.302.288-.422.127-.12.279-.214.446-.277.191-.068.394-.102.597-.099.104.0.207.008.31.023.091.014.179.037.265.068.078.028.153.063.223.106.068.042.133.088.194.139l-.107.165c-.008.015-.021.028-.036.037s-.033.014-.051.014c-.025-.001-.049-.008-.069-.021-.033-.017-.069-.038-.109-.063-.047-.028-.097-.052-.149-.072-.066-.025-.135-.045-.205-.059-.093-.016-.188-.024-.283-.023-.147-.002-.293.023-.43.074-.124.047-.236.119-.328.211-.092.096-.163.209-.207.331-.1.289-.1.6.0.889.049.125.125.24.223.336.091.091.202.163.325.211.142.046.292.064.441.053z"/><path d="M41.172 20.184h1.217v.304h-1.59v-2.666h.381l-.009 2.362z"/><path d="M43.656 20.488h-.381v-2.666h.381v2.666z"/><path d="M45.074 17.834c.023.012.042.029.058.049l1.63 2.009c-.002-.032-.002-.063.0-.095.0-.03.0-.059.0-.087v-1.9h.332v2.676h-.192c-.028.002-.057-.003-.083-.015-.023-.013-.044-.03-.06-.051l-1.628-2.007c0 .032.0.061.0.091s0 .057.0.082v1.9h-.319v-2.666h.198c.022.0.043.004.062.013z"/><path d="M49.901 17.822v.293h-1.351v.88h1.095v.283h-1.095v.91h1.351v.293h-1.743v-2.659h1.743z"/><path d="M9.95 1.359l16.929 4.551v15.946L9.95 17.308v-15.948zM8.864.0v18.082l19.098 5.135v-18.08l-19.098-5.137z"/><path d="M19.1 31.611.0 26.472v-18.08l19.1 5.137v18.082z"/><path d="M9.181 1.155l16.708 4.493-7.105 6.729-16.71-4.496 7.108-6.726zM8.864.0.0 8.392l19.1 5.137 8.862-8.392-19.098-5.137z"/><path d="M20.175 30.593l7.788-7.374-7.788-2.096v9.47z"/></symbol><symbol id="icon-smartphone" viewBox="0 0 20 32"><path d="M17 0H3C1.346.0.0 1.346.0 3v26c0 1.654 1.346 3 3 3h14c1.654.0 3-1.346 3-3V3c0-1.654-1.346-3-3-3zM3 2h14c.552.0 1 .448 1 1v21H2V3c0-.552.448-1 1-1zM17 30H3c-.552.0-1-.448-1-1v-3h16v3c0 .552-.448 1-1 1z"/><path d="M4.707 27.478c.391.365.391.956.0 1.321s-1.024.365-1.414.0c-.391-.365-.391-.956.0-1.321s1.024-.365 1.414.0z"/></symbol><symbol id="icon-twitter" viewBox="0 0 32 32"><path d="M32 6.078c-1.19.522-2.458.868-3.78 1.036 1.36-.812 2.398-2.088 2.886-3.626-1.268.756-2.668 1.29-4.16 1.588-1.204-1.282-2.92-2.076-4.792-2.076-3.632.0-6.556 2.948-6.556 6.562.0.52.044 1.02.152 1.496-5.454-.266-10.28-2.88-13.522-6.862-.566.982-.898 2.106-.898 3.316.0 2.272 1.17 4.286 2.914 5.452-1.054-.02-2.088-.326-2.964-.808.0.02.0.046.0.072.0 3.188 2.274 5.836 5.256 6.446-.534.146-1.116.216-1.72.216-.42.0-.844-.024-1.242-.112.85 2.598 3.262 4.508 6.13 4.57-2.232 1.746-5.066 2.798-8.134 2.798-.538.0-1.054-.024-1.57-.09 2.906 1.874 6.35 2.944 10.064 2.944 12.072.0 18.672-10 18.672-18.668.0-.29-.01-.57-.024-.848 1.302-.924 2.396-2.078 3.288-3.406z"/></symbol>
<symbol id="form-email" viewBox="0 0 43 32">
<path d="M38.667 0h-34.667c-2.206 0-4 1.794-4 4v24c0 2.206 1.794 4 4 4h34.667c2.206 0 4-1.794 4-4v-24c0-2.206-1.794-4-4-4zM38.667 2.667c0.181 0 0.353 0.038 0.511 0.103l-17.844 15.466-17.844-15.466c0.158-0.066 0.33-0.103 0.511-0.103h34.667zM38.667 29.333h-34.667c-0.736 0-1.333-0.598-1.333-1.333v-22.413l17.793 15.421c0.251 0.217 0.563 0.326 0.874 0.326s0.622-0.108 0.874-0.326l17.793-15.421v22.413c0 0.736-0.598 1.333-1.333 1.333z"></path>
</symbol>
<symbol id="form-check-box" viewBox="0 0 34 32">
<path d="M30.341 3.556v24.889h-26.548v-24.889h26.548zM30.341 0h-26.548c-2.086 0-3.793 1.6-3.793 3.556v24.889c0 1.956 1.707 3.556 3.793 3.556h26.548c2.086 0 3.793-1.6 3.793-3.556v-24.889c0-1.956-1.707-3.556-3.793-3.556z"></path>
</symbol>
<symbol id="form-email" viewBox="0 0 32 32">
<path d="M26.667 5.333h-21.333c-1.467 0-2.653 1.2-2.653 2.667l-0.013 16c0 1.467 1.2 2.667 2.667 2.667h21.333c1.467 0 2.667-1.2 2.667-2.667v-16c0-1.467-1.2-2.667-2.667-2.667zM26.133 11l-9.427 5.893c-0.427 0.267-0.987 0.267-1.413 0l-9.427-5.893c-0.333-0.213-0.533-0.573-0.533-0.96 0-0.893 0.973-1.427 1.733-0.96l8.933 5.587 8.933-5.587c0.76-0.467 1.733 0.067 1.733 0.96 0 0.387-0.2 0.747-0.533 0.96z"></path>
</symbol>
<symbol id="form-person" viewBox="0 0 32 32">
<path d="M16 16c2.947 0 5.333-2.387 5.333-5.333s-2.387-5.333-5.333-5.333c-2.947 0-5.333 2.387-5.333 5.333s2.387 5.333 5.333 5.333zM16 18.667c-3.56 0-10.667 1.787-10.667 5.333v1.333c0 0.733 0.6 1.333 1.333 1.333h18.667c0.733 0 1.333-0.6 1.333-1.333v-1.333c0-3.547-7.107-5.333-10.667-5.333z"></path>
</symbol>
<symbol id="form-phone" viewBox="0 0 32 32">
<path d="M24.882 19.773l-3.268-0.373c-0.785-0.090-1.557 0.18-2.11 0.733l-2.367 2.367c-3.641-1.853-6.626-4.825-8.478-8.478l2.38-2.38c0.553-0.553 0.823-1.325 0.733-2.11l-0.373-3.242c-0.154-1.299-1.248-2.277-2.56-2.277h-2.226c-1.454 0-2.663 1.209-2.573 2.663 0.682 10.987 9.469 19.761 20.443 20.443 1.454 0.090 2.663-1.119 2.663-2.573v-2.226c0.013-1.3-0.965-2.393-2.264-2.547z"></path>
</symbol>
<symbol id="close-btn" viewBox="0 0 18 18"><path d="M15 4.10786 13.8921 3 9.5 7.39214 5.10786 3 4 4.10786 8.39214 8.5 4 12.8921 5.10786 14 9.5 9.60786 13.8921 14 15 12.8921 10.6079 8.5 15 4.10786z" /></symbol></defs></svg>